<svg width="43" height="47" viewBox="0 0 43 47" fill="none" xmlns="http://www.w3.org/2000/svg">
<path d="M35.6121 35.6303C35.7048 33.7283 35.4085 31.8275 34.7412 30.0429C34.0738 28.2584 33.0493 26.6273 31.7298 25.2486C30.4103 23.8699 28.8232 22.7723 27.0647 22.0223C25.3063 21.2724 23.4132 20.8857 21.5002 20.8857C19.5871 20.8857 17.694 21.2724 15.9356 22.0223C14.1771 22.7723 12.5901 23.8699 11.2705 25.2486C9.95098 26.6273 8.92648 28.2584 8.25913 30.0429C7.59177 31.8275 7.29547 33.7283 7.38819 35.6303C7.38819 43.3972 13.7137 46.6857 21.5168 46.6857C29.3198 46.6857 35.6121 43.3972 35.6121 35.6303Z" fill="#FE899C"/>
<path d="M5.9381 10.2381C2.6654 10.2381 0 14.3101 0 17.4862C0 20.6623 2.6654 21.7048 5.9381 21.7048C9.2108 21.7048 11.8762 20.6461 11.8762 17.4862C11.8762 14.3264 9.2108 10.2381 5.9381 10.2381Z" fill="#FE899C"/>
<path d="M31.124 17.4862C31.124 20.6461 33.7894 21.7048 37.0621 21.7048C40.3348 21.7048 43.0002 20.6461 43.0002 17.4862C43.0002 14.3264 40.3348 10.2381 37.0621 10.2381C33.7894 10.2381 31.124 14.3101 31.124 17.4862Z" fill="#FE899C"/>
<path d="M14.7427 8.6C14.7427 12.3512 17.6846 13.5143 21.2951 13.5143C24.9056 13.5143 27.8474 12.2693 27.8474 8.6C27.8474 4.93067 24.9223 0 21.2951 0C17.6678 0 14.7427 4.91429 14.7427 8.6Z" fill="#FE899C"/>
</svg>
