<svg width="63" height="64" viewBox="0 0 63 64" fill="none" xmlns="http://www.w3.org/2000/svg">
<path d="M25.4784 49.3235C24.5524 49.3235 23.6824 48.9625 23.0274 48.3085L14.6874 39.9625C14.0324 39.3075 13.6724 38.4375 13.6724 37.5105C13.6724 36.5835 14.0324 35.7135 14.6874 35.0585L37.6224 12.1105C38.9314 10.8005 41.2154 10.8025 42.5244 12.1105L50.8634 20.4555C51.5194 21.1095 51.8794 21.9805 51.8794 22.9075C51.8794 23.8345 51.5194 24.7045 50.8624 25.3605L27.9284 48.3075C27.2744 48.9615 26.4034 49.3235 25.4784 49.3235ZM40.0724 14.0975C40.0014 14.0975 39.8624 14.1145 39.7434 14.2325L16.8084 37.1815C16.6904 37.3005 16.6724 37.4395 16.6724 37.5115C16.6724 37.5835 16.6904 37.7225 16.8084 37.8415L25.1484 46.1855C25.3744 46.4105 25.5804 46.4105 25.8074 46.1855L48.7424 23.2375C48.8564 23.1235 48.8794 22.9945 48.8794 22.9075C48.8794 22.8195 48.8564 22.6905 48.7434 22.5785L40.4024 14.2325C40.2834 14.1145 40.1454 14.0975 40.0724 14.0975Z" fill="#FE899C"/>
<path d="M56.7533 18.0295C55.8273 18.0295 54.9573 17.6685 54.3033 17.0135L45.9633 8.6685C45.3083 8.0135 44.9473 7.1425 44.9473 6.2165C44.9473 5.2905 45.3083 4.4195 45.9643 3.7635L48.7423 0.9825C50.0533 -0.3285 52.3353 -0.3265 53.6443 0.9825L61.9853 9.3275C63.3363 10.6795 63.3363 12.8795 61.9853 14.2315L59.2043 17.0135C58.5503 17.6685 57.6803 18.0295 56.7533 18.0295ZM51.1943 2.9695C51.1063 2.9695 50.9773 2.9935 50.8623 3.1075L48.0843 5.8885C47.9713 6.0015 47.9473 6.1295 47.9473 6.2175C47.9473 6.3055 47.9713 6.4335 48.0833 6.5455L56.4243 14.8925C56.5433 15.0105 56.6823 15.0295 56.7533 15.0295C56.8253 15.0295 56.9643 15.0105 57.0833 14.8925L59.8633 12.1105C60.0453 11.9285 60.0453 11.6325 59.8633 11.4505L51.5233 3.1065C51.4093 2.9935 51.2813 2.9695 51.1943 2.9695Z" fill="#FE899C"/>
<path d="M48.4135 21.6255C48.0295 21.6255 47.6465 21.4795 47.3535 21.1865L41.7925 15.6225C41.5115 15.3405 41.3535 14.9585 41.3535 14.5615C41.3535 14.1635 41.5115 13.7815 41.7925 13.4995L47.3535 7.9375C47.9395 7.3505 48.8885 7.3505 49.4745 7.9375L55.0345 13.4995C55.3165 13.7815 55.4745 14.1635 55.4745 14.5615C55.4745 14.9585 55.3165 15.3405 55.0345 15.6225L49.4745 21.1865C49.1815 21.4795 48.7975 21.6255 48.4135 21.6255ZM44.9745 14.5625L48.4135 18.0035L51.8535 14.5625L48.4135 11.1215L44.9745 14.5625Z" fill="#FE899C"/>
<path d="M18.5274 49.3235C17.6024 49.3235 16.7324 48.9625 16.0774 48.3085L14.6874 46.9165C14.0324 46.2625 13.6724 45.3915 13.6724 44.4655C13.6724 43.5375 14.0324 42.6675 14.6874 42.0125L16.7724 39.9265C17.3584 39.3405 18.3074 39.3405 18.8934 39.9265L23.0634 44.0985C23.6494 44.6855 23.6494 45.6345 23.0634 46.2215L20.9784 48.3075C20.3234 48.9615 19.4534 49.3235 18.5274 49.3235ZM17.8324 43.1105L16.8084 44.1355C16.6904 44.2555 16.6724 44.3935 16.6724 44.4665C16.6724 44.5375 16.6904 44.6765 16.8084 44.7955L18.1974 46.1855C18.4244 46.4105 18.6304 46.4105 18.8574 46.1855L19.8814 45.1605L17.8324 43.1105Z" fill="#FE899C"/>
<path d="M1.4995 63.0035C1.1155 63.0035 0.7325 62.8565 0.4395 62.5635C-0.1465 61.9775 -0.1465 61.0275 0.4395 60.4415L15.0345 45.8375C15.6205 45.2505 16.5695 45.2505 17.1555 45.8375C17.7415 46.4235 17.7415 47.3735 17.1555 47.9595L2.5605 62.5635C2.2675 62.8565 1.8835 63.0035 1.4995 63.0035Z" fill="#FE899C"/>
</svg>
