<svg width="67" height="72" viewBox="0 0 67 72" fill="none" xmlns="http://www.w3.org/2000/svg">
<path d="M54.9218 54.9501C55.0647 52.0169 54.6078 49.0853 53.5786 46.3331C52.5494 43.5809 50.9693 41.0654 48.9343 38.9392C46.8993 36.8129 44.4516 35.1202 41.7397 33.9636C39.0279 32.807 36.1082 32.2106 33.1579 32.2106C30.2075 32.2106 27.2879 32.807 24.576 33.9636C21.8641 35.1202 19.4165 36.8129 17.3815 38.9392C15.3464 41.0654 13.7664 43.5809 12.7372 46.3331C11.708 49.0853 11.251 52.0169 11.394 54.9501C11.394 66.9284 21.1493 72 33.1835 72C45.2176 72 54.9218 66.9284 54.9218 54.9501Z" fill="white"/>
<path d="M9.1579 15.7894C4.11065 15.7894 0 22.0693 0 26.9677C0 31.866 4.11065 33.4736 9.1579 33.4736C14.2051 33.4736 18.3158 31.8409 18.3158 26.9677C18.3158 22.0945 14.2051 15.7894 9.1579 15.7894Z" fill="white"/>
<path d="M48 26.9677C48 31.8409 52.1106 33.4736 57.1579 33.4736C62.2051 33.4736 66.3158 31.8409 66.3158 26.9677C66.3158 22.0945 62.2051 15.7894 57.1579 15.7894C52.1106 15.7894 48 22.0693 48 26.9677Z" fill="white"/>
<path d="M22.7368 13.2632C22.7368 19.0484 27.2739 20.8421 32.8421 20.8421C38.4103 20.8421 42.9473 18.9221 42.9473 13.2632C42.9473 7.60421 38.4361 0 32.8421 0C27.2481 0 22.7368 7.57895 22.7368 13.2632Z" fill="white"/>
</svg>
